G05
M48
;#@! TF.GenerationSoftware,DesignSpark,DesignSpark PCB,12.0.5940
;#@! TF.CreationDate,2026-05-22T23:05:11+05:00*
;#@! TF.FileFunction,Plated,1,2,PTH
;FILE_FORMAT=3:5
;TYPE=PLATED
INCH,TZ
FMAT,2
T1C000.02400
T2C000.03500
T3C000.04000
%
T001
X0.25250Y0.45250
X0.45250Y1.70250
X0.50250Y0.15250
X0.60250Y0.25250
X0.60250Y0.55250
X0.65250Y1.90250
X0.85250Y1.05250
X0.90250Y0.35250
X0.90250Y0.45250
X1.05250Y0.85250
X1.25250Y1.70250
X1.45250Y1.90250
X1.65250Y1.05250
X1.85250Y0.85250
X2.05250Y1.70250
X2.25250Y1.90250
T002
X0.15250Y0.15250
X0.15250Y2.00250
X2.40250Y0.15250
X2.40250Y2.00250
T003
X0.35250Y1.80250
X0.40250Y0.35250
X0.40250Y0.45250
X0.45250Y1.80250
X0.50250Y0.35250
X0.50250Y0.45250
X0.55250Y1.80250
X0.60250Y0.35250
X0.60250Y0.45250
X0.65250Y1.80250
X0.70250Y0.35250
X0.70250Y0.45250
X0.75250Y0.95250
X0.85250Y0.95250
X0.95250Y0.95250
X1.05250Y0.95250
X1.15250Y1.80250
X1.25250Y1.80250
X1.35250Y1.80250
X1.45250Y1.80250
X1.55250Y0.95250
X1.65250Y0.95250
X1.75250Y0.95250
X1.85250Y0.95250
X1.95250Y1.80250
X2.05250Y1.80250
X2.15250Y1.80250
X2.25250Y1.80250
M30
