G04 DesignSpark PCB Gerber Version 12.0 Build 5942*
G04 #@! TF.Part,Single*
G04 #@! TF.FileFunction,Copper,L1,Top*
G04 #@! TF.FilePolarity,Positive*
%FSLAX35Y35*%
%MOIN*%
G04 #@! TA.AperFunction,ComponentPad*
%AMT16*0 Octagon Pad at angle 0*4,1,8,-0.01243,-0.03000,0.01243,-0.03000,0.03000,-0.01243,0.03000,0.01243,0.01243,0.03000,-0.01243,0.03000,-0.03000,0.01243,-0.03000,-0.01243,-0.01243,-0.03000,0*%
%ADD16T16*%
%ADD15R,0.06000X0.06000*%
%ADD17O,0.06000X0.12000*%
G04 #@! TD.AperFunction*
%ADD12C,0.01500*%
%ADD13C,0.02500*%
G04 #@! TA.AperFunction,ViaPad*
%ADD11C,0.04800*%
G04 #@! TD.AperFunction*
%ADD10C,0.05000*%
G04 #@! TA.AperFunction,WasherPad*
%ADD14C,0.06000*%
G04 #@! TD.AperFunction*
X0Y0D02*
D02*
D10*
X15250Y80250D02*
Y85250D01*
X20250D01*
X15250Y90250D02*
Y85250D01*
X20250D02*
X105250D01*
X25250Y45250D02*
X40250D01*
Y35250D02*
X20250D01*
X15250Y40250D01*
Y80250D01*
X65250Y190250D02*
X20250D01*
X15250Y185250D01*
Y90250D01*
X105250Y85250D02*
X185250D01*
X145250Y190250D02*
X65250D01*
X225250D02*
X145250D01*
D02*
D11*
X25250Y45250D03*
X45250Y170250D03*
X50250Y15250D03*
X60250Y25250D03*
Y55250D03*
X65250Y190250D03*
X85250Y105250D03*
X90250Y35250D03*
Y45250D03*
X105250Y85250D03*
X125250Y170250D03*
X145250Y190250D03*
X165250Y105250D03*
X185250Y85250D03*
X205250Y170250D03*
X225250Y190250D03*
D02*
D12*
X15250Y80250D02*
X20250Y85250D01*
X15250Y90250D02*
X20250Y85250D01*
X125250Y170250D02*
X165250Y105250D02*
X205250Y170250D02*
D02*
D13*
X45250D02*
X125250D01*
X50250Y15250D02*
Y35250D01*
X60250Y25250D02*
Y35250D01*
Y55250D02*
Y45250D01*
X85250Y105250D02*
X45250D01*
X35250Y115250D01*
Y160250D01*
X45250Y170250D01*
X85250Y105250D02*
X165250D01*
X90250Y35250D02*
X70250D01*
X90250Y45250D02*
X70250D01*
X125250Y170250D02*
X205250D01*
X165250Y105250D02*
X190250D01*
X195250Y100250D01*
Y70250D01*
X190250Y65250D01*
X60250D01*
X50250Y55250D01*
Y45250D01*
D02*
D14*
X15250Y15250D03*
Y200250D03*
X240250Y15250D03*
Y200250D03*
D02*
D15*
X40250Y45250D03*
D02*
D16*
Y35250D03*
X50250D03*
Y45250D03*
X60250Y35250D03*
Y45250D03*
X70250Y35250D03*
Y45250D03*
D02*
D17*
X35250Y180250D03*
X45250D03*
X55250D03*
X65250D03*
X75250Y95250D03*
X85250D03*
X95250D03*
X105250D03*
X115250Y180250D03*
X125250D03*
X135250D03*
X145250D03*
X155250Y95250D03*
X165250D03*
X175250D03*
X185250D03*
X195250Y180250D03*
X205250D03*
X215250D03*
X225250D03*
X0Y0D02*
M02*
