G05
M48
;#@! TF.GenerationSoftware,DesignSpark,DesignSpark PCB,12.0.5940
;#@! TF.CreationDate,2026-03-22T23:49:54+05:00*
;#@! TF.FileFunction,Plated,1,2,PTH
;FILE_FORMAT=3:5
;TYPE=PLATED
INCH,TZ
FMAT,2
T1C000.04000
%
T001
X0.20250Y0.20250
X0.20250Y0.30250
X0.20250Y0.40250
X0.30250Y0.20250
X0.30250Y0.30250
X0.30250Y0.40250
X0.35250Y1.90250
X0.35250Y2.00250
X0.45250Y1.90250
X0.45250Y2.00250
X0.55250Y0.20250
X0.55250Y0.30250
X0.55250Y0.40250
X0.55250Y1.90250
X0.55250Y2.00250
X0.65250Y0.20250
X0.65250Y0.30250
X0.65250Y0.40250
X0.65250Y1.90250
X0.65250Y2.00250
X0.90250Y0.20250
X0.90250Y0.30250
X1.00250Y0.20250
X1.00250Y0.30250
X1.10250Y0.20250
X1.10250Y0.30250
X1.20250Y0.20250
X1.20250Y0.30250
X1.30250Y0.20250
X1.30250Y0.30250
X1.40250Y0.20250
X1.40250Y0.30250
M30
